<svg width="120" height="37" viewBox="0 0 120 37" fill="none" xmlns="http://www.w3.org/2000/svg">
<path d="M37.368 21.122C37.368 23.5144 36.0702 24.3425 33.6983 24.3425L20.4095 24.2505C20.9465 27.6091 23.5421 29.4034 26.8089 29.4034C28.42 29.4034 29.1808 29.0353 30.5233 28.4348C31.3289 28.0667 31.9554 27.7083 32.7162 27.7083C32.9839 27.6956 33.2513 27.7404 33.5013 27.8399C33.7512 27.9395 33.9782 28.0915 34.1677 28.2864C34.3573 28.4812 34.5052 28.7146 34.602 28.9716C34.6988 29.2285 34.7424 29.5034 34.73 29.7787C34.73 30.5051 34.4167 31.3429 33.2979 32.3091C31.6492 33.5053 29.4045 34.2874 26.5852 34.2874C20.6332 34.2874 14.3232 30.5148 14.3232 22.1414C14.3232 13.8601 20.9912 9.85742 26.1 9.85742C31.2087 9.85742 37.368 13.9908 37.368 21.122ZM20.4095 20.1123H31.5974C31.1499 16.5697 28.6438 15.0974 26.0929 15.0974C23.5421 15.0974 20.8052 16.5673 20.4095 20.1123Z" fill="#E03333"/>
<path d="M79.8066 5.77093L107.298 24.5347L109.607 18.5973L81.8841 0.785156L79.8066 5.77093Z" fill="#F58020"/>
<path d="M15.7879 12.6059C15.7879 14.3276 14.5207 15.4899 11.9864 15.4899C8.41331 15.4899 6.15218 18.3278 5.92606 20.2335V31.4424C5.91152 32.2404 5.59619 33.0015 5.04653 33.5652C4.49688 34.129 3.75582 34.4513 2.97952 34.4643C2.19803 34.4582 1.44965 34.1392 0.893321 33.5749C0.336987 33.0106 0.0165269 32.2456 0 31.4424V12.9788C0.00673724 12.1679 0.322592 11.3921 0.879708 10.8179C1.43682 10.2438 2.19075 9.91727 2.97952 9.90842C3.76228 9.92544 4.50769 10.2558 5.05712 10.8293C5.60655 11.4027 5.91662 12.1739 5.92135 12.9788V15.3034C6.10036 13.6302 8.90558 9.81641 12.9874 9.81641C14.8411 9.81641 15.7926 11.1192 15.7926 12.6059" fill="#E03333"/>
<path d="M51.9566 31.2088C51.9566 33.3469 49.9192 34.4632 46.8431 34.4632C43.767 34.4632 40.6462 33.4413 40.6462 26.9761V14.8373H39.3343C37.8857 14.8373 36.9365 13.8688 36.9365 12.4668C36.9365 11.0139 37.8787 10.0453 39.3343 10.0453H40.6462V6.8829C40.653 6.07073 40.9698 5.29379 41.5284 4.71948C42.0871 4.14517 42.8428 3.81946 43.6328 3.8125C44.4177 3.82208 45.167 4.15017 45.7176 4.72529C46.2682 5.30041 46.5754 6.07595 46.5723 6.8829V10.0453H49.5588C51.0498 10.0453 51.9566 11.0139 51.9566 12.4668C51.9566 13.8615 51.0498 14.8373 49.5588 14.8373H46.5723V27.1625C46.5723 28.5113 47.0245 29.2086 48.0208 29.2086C48.5178 29.2086 49.2409 29.0222 49.7378 29.0222C51.0969 28.9302 51.9566 29.768 51.9566 31.2015" fill="#E03333"/>
<path d="M75.6588 12.931V31.4914C75.6588 33.167 74.2102 34.5158 72.6274 34.5158C71.8411 34.521 71.0848 34.2056 70.5242 33.6388C69.9635 33.0719 69.6442 32.2998 69.6361 31.4914V30.6076C69.2734 32.0604 66.8757 34.5618 62.9399 34.5618C57.963 34.5618 51.9922 30.6076 51.9922 22.1446C51.9922 13.8657 58.0101 9.77344 62.9399 9.77344C66.1526 9.77344 68.7293 11.5411 69.6361 13.7252V12.9358C69.6527 12.1315 69.9737 11.3656 70.531 10.8008C71.0883 10.236 71.8378 9.91694 72.6204 9.91145C74.2031 9.91145 75.6517 11.3086 75.6517 12.9358L75.6588 12.931ZM69.907 22.1373C69.907 16.8804 66.56 14.9747 64.0186 14.9747C61.032 14.9747 57.9112 17.3961 57.9112 22.1373C57.9112 26.927 61.032 29.3 64.0186 29.3C66.553 29.3 69.907 27.3919 69.907 22.1373Z" fill="#E03333"/>
<path d="M78.417 3.58251C78.417 1.9553 79.8302 0.560547 81.4483 0.560547C82.2292 0.560547 82.978 0.879434 83.5302 1.44707C84.0823 2.01471 84.3925 2.7846 84.3925 3.58736C84.3925 4.39012 84.0823 5.15999 83.5302 5.72763C82.978 6.29526 82.2292 6.61417 81.4483 6.61417C79.8184 6.61417 78.417 5.21941 78.417 3.58978" fill="#D62B28"/>
<path d="M84.388 12.9778V31.3954C84.388 32.2033 84.0758 32.9781 83.5201 33.5493C82.9644 34.1206 82.2108 34.4416 81.4249 34.4416C80.6391 34.4416 79.8854 34.1206 79.3298 33.5493C78.7741 32.9781 78.4619 32.2033 78.4619 31.3954V12.9778C78.4619 12.1699 78.7741 11.3951 79.3298 10.8239C79.8854 10.2526 80.6391 9.93164 81.4249 9.93164C82.2108 9.93164 82.9644 10.2526 83.5201 10.8239C84.0758 11.3951 84.388 12.1699 84.388 12.9778Z" fill="#E03333"/>
<path d="M90.1766 34.4635C89.3919 34.4667 88.6378 34.1508 88.0787 33.5847C87.5197 33.0186 87.2011 32.2482 87.1924 31.4415V4.05008C87.1924 3.24218 87.5046 2.46738 88.0602 1.89611C88.6159 1.32484 89.3696 1.00391 90.1554 1.00391C90.9413 1.00391 91.6949 1.32484 92.2506 1.89611C92.8063 2.46738 93.1184 3.24218 93.1184 4.05008V31.4415C93.1117 32.2413 92.7995 33.0062 92.2492 33.5715C91.6989 34.1368 90.9545 34.4572 90.1766 34.4635Z" fill="#E03333"/>
<path d="M119.887 19.7292C119.592 17.5597 118.733 15.5122 117.4 13.8027C116.068 12.0933 114.311 10.7852 112.316 10.0164C110.321 9.24761 108.16 9.04664 106.063 9.4347C103.966 9.82276 102.01 10.7855 100.4 12.2213C98.7909 13.657 97.5883 15.5127 96.9192 17.5926C96.2501 19.6724 96.1393 21.8993 96.5986 24.0385C97.0579 26.1777 98.0702 28.1498 99.5287 29.7468C100.987 31.3439 102.838 32.5066 104.886 33.1125C105.381 33.2533 105.817 33.558 106.127 33.9794L107.79 36.2556C107.834 36.3131 107.89 36.3595 107.954 36.3914C108.018 36.4233 108.088 36.4399 108.16 36.4399C108.231 36.4399 108.301 36.4233 108.365 36.3914C108.429 36.3595 108.485 36.3131 108.529 36.2556L110.19 33.9794C110.498 33.5596 110.931 33.2557 111.424 33.115C114.165 32.3042 116.53 30.5043 118.085 28.0454C119.639 25.5866 120.279 22.6339 119.887 19.7292ZM108.16 28.1026C106.902 28.1026 105.672 27.7191 104.627 27.0008C103.581 26.2824 102.766 25.2613 102.284 24.0666C101.803 22.872 101.677 21.5574 101.922 20.2892C102.168 19.021 102.773 17.856 103.663 16.9417C104.552 16.0273 105.685 15.4047 106.919 15.1524C108.153 14.9001 109.431 15.0296 110.593 15.5244C111.755 16.0193 112.749 16.8573 113.447 17.9324C114.146 19.0076 114.519 20.2716 114.519 21.5647C114.519 23.2986 113.849 24.9616 112.656 26.1877C111.464 27.4138 109.846 28.1026 108.16 28.1026Z" fill="#E03333"/>
<path d="M108.16 18.3598C107.544 18.3598 106.941 18.5479 106.428 18.9003C105.915 19.2527 105.515 19.7535 105.279 20.3395C105.043 20.9255 104.982 21.5702 105.102 22.1922C105.223 22.8142 105.52 23.3854 105.956 23.8337C106.393 24.2819 106.948 24.5871 107.554 24.7105C108.159 24.834 108.786 24.7701 109.355 24.5271C109.925 24.2841 110.412 23.8728 110.755 23.3452C111.097 22.8177 111.279 22.1976 111.279 21.5634C111.278 20.7133 110.95 19.8983 110.365 19.2972C109.78 18.696 108.987 18.3581 108.16 18.3574" fill="#D62B28"/>
</svg>
