<svg width="193" height="56" viewBox="0 0 193 56" fill="none" xmlns="http://www.w3.org/2000/svg">
<path d="M186.917 34.9832L181.764 40.1172L186.917 45.2511L192.071 40.1172L186.917 34.9832Z" fill="#FF576D"/>
<path d="M44.5626 27.5557V46.2603H34.862V28.369C34.862 27.0295 34.0937 26.2163 31.6925 26.2163C30.1078 26.2163 28.8112 27.0774 27.5146 28.1777V46.2604H17.7179V28.369C17.7179 27.0295 16.9976 26.2163 14.5965 26.2163C13.1079 26.2163 11.7632 26.9818 10.3705 28.1299V46.2604H0.669922V21.7673H10.3706V26.2641C12.4356 23.5373 15.3648 21.2891 19.9271 21.2891C24.009 21.2891 26.7463 23.0112 27.3706 26.8383C29.2915 23.968 32.461 21.2891 36.9751 21.2891C41.8253 21.289 44.5626 23.4417 44.5626 27.5557Z" fill="white"/>
<path d="M47.9238 34.4923C47.9238 26.8382 54.0227 21.2891 62.7148 21.2891C71.4069 21.2891 77.4577 26.0729 77.4577 33.5356C77.4577 41.1896 71.4069 46.7388 62.7148 46.7388C54.0227 46.7388 47.9238 41.955 47.9238 34.4923ZM67.0848 35.9275C67.0848 28.2256 65.8362 23.2026 62.5227 23.2026C59.3052 23.2026 58.2967 26.5034 58.2967 32.1004C58.2967 39.8023 59.5453 44.8253 62.9069 44.8253C66.0764 44.8253 67.0848 41.5245 67.0848 35.9275Z" fill="white"/>
<path d="M79.377 42.577L83.5549 38.75C86.6764 43.4381 90.4222 44.3948 92.6312 44.2992C94.4561 44.2035 96.0888 43.3903 96.0888 41.6201C96.0888 39.5153 93.6397 38.7499 89.0775 37.6496C83.0267 36.0231 80.0492 33.9183 80.0492 29.4693C80.0492 24.1593 84.6114 21.2891 91.6227 21.2891C97.7696 21.2891 101.948 23.6331 101.948 26.4077C101.948 27.6515 101.083 28.8474 98.8741 28.8474C96.9052 28.8474 96.3769 27.9385 96.3769 26.6948C96.3769 24.5422 95.1283 23.2026 91.8148 23.2026C88.8374 23.2026 87.3006 24.3029 87.3006 25.9294C87.3006 27.9387 89.6057 28.5605 94.2159 29.8521C99.9786 31.5264 103.34 33.4399 103.34 38.2237C103.34 43.7252 98.73 46.7389 90.9023 46.7389C86.1481 46.7389 82.3543 45.7343 79.377 42.577Z" fill="white"/>
<path d="M130.232 29.2302V46.2604H120.627V42.1942C119.042 44.4904 116.545 46.5953 112.511 46.5953C108.381 46.5953 105.26 44.3948 105.26 40.4721C105.26 36.5494 108.477 34.875 111.887 33.8704L120.627 31.2393V26.5991C120.627 24.4942 119.907 23.0591 117.986 23.0591C115.825 23.0591 115.008 24.8291 115.008 27.1253C115.008 29.1823 113.087 30.5218 110.59 30.5218C108.093 30.5218 107.037 29.1823 107.037 27.3645C107.037 23.4418 111.983 21.2891 118.85 21.2891C125.813 21.2891 130.232 23.2983 130.232 29.2302ZM120.627 40.9504V33.1529L117.698 34.1096C115.873 34.6837 114.624 35.5925 114.624 38.1758C114.624 40.4721 115.633 42.1942 117.842 42.1942C118.368 42.1985 118.89 42.0896 119.371 41.875C119.851 41.6604 120.28 41.345 120.627 40.9504Z" fill="white"/>
<path d="M135.273 14.1586C135.273 11.2406 137.723 9.18359 140.556 9.18359C143.293 9.18359 145.838 11.2406 145.838 14.1586C145.838 17.1246 143.293 19.2295 140.556 19.2295C137.723 19.2295 135.273 17.1247 135.273 14.1586ZM135.706 46.2578V21.765H145.406V46.258L135.706 46.2578Z" fill="white"/>
<path d="M170.233 46.2601L163.029 36.3576C162.597 36.6447 162.213 36.9317 161.781 37.2665V46.2601H152.08V9.66406H161.781V34.5398C165.68 31.0416 168.677 26.6609 170.521 21.7671H178.301C176.283 25.0679 173.018 28.3687 169.08 31.6695L180.317 46.2601H170.233Z" fill="white"/>
</svg>
