<svg width="166" height="30" viewBox="0 0 166 30" fill="none" xmlns="http://www.w3.org/2000/svg">
<g clip-path="url(#clip0_401_3719)">
<path d="M39.8219 0L34.7674 25.9849L28.8627 0H18.0451L12.1403 25.9849L7.03853 0H0L5.85756 30H18.0451L23.4303 5.32331L28.8155 30H41.0029L46.9077 0H39.8219Z" fill="white"/>
<path d="M49.2769 30H75.712V24.6316H67.1849V5.86468C67.1849 2.39099 65.085 1.61195e-05 59.5845 1.61195e-05L54.1361 0L53.1342 5.36843H59.5845V24.6316H50.2767L49.2769 30Z" fill="white"/>
<path d="M101.02 0L78.0811 1.17807e-05V5.41354H86.5531V30H94.1532V5.41354L99.9918 5.41352L101.02 0Z" fill="white"/>
<path d="M128.61 0H106.63L105.759 5.41354L112.89 5.41352V30H120.491V5.41352H128.61V0Z" fill="white"/>
<path d="M157.549 0L152.049 10.421C151.199 12.0902 150.399 13.7143 149.599 15.3835C148.899 13.7143 148.099 12.0902 147.299 10.421L141.848 0H133.348L145.899 20.9323V30H153.5V20.9323L166 0H157.549Z" fill="white"/>
</g>
<defs>
<clipPath id="clip0_401_3719">
<rect width="166" height="30" fill="white"/>
</clipPath>
</defs>
</svg>
